<svg width="192" height="81" viewBox="0 0 192 81" fill="none" xmlns="http://www.w3.org/2000/svg">
<path d="M73.2739 64.1386L56.3794 36.3969L93.8723 0H64.2786C61.9353 0 59.7054 0.907087 58.0424 2.49449L31.7746 28.1575L34.7605 0H8.00142L0.0266128 76.0819C-0.237954 78.463 1.50063 80.6173 3.88173 80.8819C4.07071 80.8819 4.22189 80.8819 4.37307 80.8819H26.2565L28.0707 63.7984L36.1211 56.0126L50.3321 78.4252C51.277 79.9748 52.9778 80.8819 54.792 80.8819H64.8833L73.2739 64.1386Z" fill="#2D2A70"/>
<path d="M91.8692 80.8819L128.077 58.885L132.688 77.5559C133.179 79.5213 134.918 80.8819 136.921 80.8819H160.392L149.923 45.5811L189.797 21.3165L189.948 19.6913L64.9211 80.8819H91.8692ZM146.143 32.9197L136.392 0H113.337C108.537 0 104.153 2.68346 101.998 6.99213L69.0408 72.5291L190.212 17.2724L190.401 15.3827L146.143 32.9197ZM107.214 48.3402L115.302 31.2567L117.419 26.5323C117.759 25.8142 118.628 25.474 119.346 25.8142C119.762 26.0031 120.064 26.3433 120.178 26.7591L123.844 41.7638L107.214 48.3402Z" fill="#ED6B23"/>
<path d="M175.586 0C169.047 0 163.605 4.91339 162.924 11.3764L161.299 26.948L190.402 15.3827L191.989 0H175.586ZM155.63 80.8819H183.636L189.797 21.3165L159.976 39.4583L155.63 80.8819Z" fill="#2D2A70"/>
</svg>
